HIERARCHY
ROOT Hips
{
	OFFSET 0.000000 0.000000 0.000000
	CHANNELS 6 Xposition Yposition Zposition Xrotation Yrotation Zrotation
	JOINT LeftUpLeg_virtual
	{
		OFFSET 0.000000 0.000000 0.000000
		CHANNELS 3 Xrotation Yrotation Zrotation
		JOINT LeftUpLeg
		{
			OFFSET 15.427100 -6.655098 0.678600
			CHANNELS 3 Xrotation Yrotation Zrotation
			JOINT LeftLeg
			{
				OFFSET 4.081073 -39.591068 13.024000
				CHANNELS 3 Xrotation Yrotation Zrotation
				JOINT LeftFoot
				{
					OFFSET -4.081074 -37.707932 -15.979700
					CHANNELS 3 Xrotation Yrotation Zrotation
					JOINT LeftToeBase
					{
						OFFSET 5.346399 -15.068900 20.645000
						CHANNELS 3 Xrotation Yrotation Zrotation
						JOINT LeftToe_End
						{
							OFFSET 2.754700 0.931300 11.300900
							CHANNELS 3 Xrotation Yrotation Zrotation
							End Site
							{
								OFFSET 0 0 0
							}
						}
					}
				}
			}
		}
	}
	JOINT RightUpLeg_virtual
	{
		OFFSET 0.000000 0.000000 0.000000
		CHANNELS 3 Xrotation Yrotation Zrotation
		JOINT RightUpLeg
		{
			OFFSET -15.569500 -6.655098 0.678600
			CHANNELS 3 Xrotation Yrotation Zrotation
			JOINT RightLeg
			{
				OFFSET -4.081825 -39.591045 13.023800
				CHANNELS 3 Xrotation Yrotation Zrotation
				JOINT RightFoot
				{
					OFFSET 4.081824 -37.707954 -15.979600
					CHANNELS 3 Xrotation Yrotation Zrotation
					JOINT RightToeBase
					{
						OFFSET -5.346400 -15.068900 20.645000
						CHANNELS 3 Xrotation Yrotation Zrotation
						JOINT RightToe_End
						{
							OFFSET -2.754700 0.931300 11.300900
							CHANNELS 3 Xrotation Yrotation Zrotation
							End Site
							{
								OFFSET 0 0 0
							}
						}
					}
				}
			}
		}
	}
	JOINT Spine_virtual
	{
		OFFSET 0.000000 0.000000 0.000000
		CHANNELS 3 Xrotation Yrotation Zrotation
		JOINT Spine
		{
			OFFSET -0.279200 12.230698 -2.892100
			CHANNELS 3 Xrotation Yrotation Zrotation
			JOINT Spine1
			{
				OFFSET -0.232667 10.192268 -1.242267
				CHANNELS 3 Xrotation Yrotation Zrotation
				JOINT Spine1_split
				{
					OFFSET -0.232667 10.192268 -1.242267
					CHANNELS 3 Xrotation Yrotation Zrotation
					JOINT Spine2
					{
						OFFSET -0.232667 10.192268 -1.242267
						CHANNELS 3 Xrotation Yrotation Zrotation
						JOINT Neck_virtual
						{
							OFFSET 0.000000 0.000000 0.000000
							CHANNELS 3 Xrotation Yrotation Zrotation
							JOINT Neck
							{
								OFFSET -0.418800 17.814194 8.416900
								CHANNELS 3 Xrotation Yrotation Zrotation
								JOINT Head
								{
									OFFSET 0.000000 7.031097 3.806800
									CHANNELS 3 Xrotation Yrotation Zrotation
									JOINT HeadTop_End
									{
										OFFSET 0.000000 24.646606 12.978600
										CHANNELS 3 Xrotation Yrotation Zrotation
										End Site
										{
											OFFSET 0 0 0
										}
									}
								}
							}
						}
						JOINT LeftShoulder_virtual
						{
							OFFSET 0.000000 0.000000 0.000000
							CHANNELS 3 Xrotation Yrotation Zrotation
							JOINT LeftShoulder
							{
								OFFSET 8.476499 7.247704 -3.868750
								CHANNELS 3 Xrotation Yrotation Zrotation
								JOINT LeftShoulder_split
								{
									OFFSET 8.476499 7.247704 -3.868750
									CHANNELS 3 Xrotation Yrotation Zrotation
									JOINT LeftArm
									{
										OFFSET 9.308998 -2.777710 0.208600
										CHANNELS 3 Xrotation Yrotation Zrotation
										JOINT LeftForeArm
										{
											OFFSET 29.972298 0.000000 0.000000
											CHANNELS 3 Xrotation Yrotation Zrotation
											JOINT LeftHand
											{
												OFFSET 26.026505 0.000000 0.000000
												CHANNELS 3 Xrotation Yrotation Zrotation
												End Site
												{
													OFFSET 0 0 0
												}
											}
										}
									}
								}
							}
						}
						JOINT RightShoulder_virtual
						{
							OFFSET 0.000000 0.000000 0.000000
							CHANNELS 3 Xrotation Yrotation Zrotation
							JOINT RightShoulder
							{
								OFFSET -7.570500 7.247704 -3.868750
								CHANNELS 3 Xrotation Yrotation Zrotation
								JOINT RightShoulder_split
								{
									OFFSET -7.570500 7.247704 -3.868750
									CHANNELS 3 Xrotation Yrotation Zrotation
									JOINT RightArm
									{
										OFFSET -9.308998 -2.777710 0.208500
										CHANNELS 3 Xrotation Yrotation Zrotation
										JOINT RightForeArm
										{
											OFFSET -29.972300 0.000000 0.000000
											CHANNELS 3 Xrotation Yrotation Zrotation
											JOINT RightHand
											{
												OFFSET -26.026505 0.000000 0.000000
												CHANNELS 3 Xrotation Yrotation Zrotation
												End Site
												{
													OFFSET 0 0 0
												}
											}
										}
									}
								}
							}
						}
					}
				}
			}
		}
	}
}
MOTION
Frames: 9
Frame Time: 0.03333333
4.954409 81.361641 -8.452015 0.000000 0.000000 0.000000 1.986033 -58.064456 1.997074 -48.951798 16.303313 43.772244 60.814392 3.407638 -0.034968 10.638587 3.942106 -11.902779 1.746948 0.035865 -2.178692 0.000000 0.000000 0.000000 1.986033 -58.064456 1.997074 -30.308688 -21.909763 -34.957502 39.115459 8.547484 1.370790 -12.311600 -2.875459 17.191265 0.000325 -0.000143 -0.000006 0.000000 0.000000 0.000000 1.986033 -58.064456 1.997074 6.405813 -1.334712 -7.322713 2.302356 0.246442 -2.720644 0.000000 0.000000 0.000000 0.000000 0.000000 0.000000 2.263251 0.270390 -2.742160 -0.715103 1.650193 2.809460 -4.982352 48.928586 -4.222262 0.000000 0.000000 0.000000 2.263251 0.270390 -2.742160 9.923219 13.444400 -5.009169 0.000000 0.000000 0.000000 21.285180 -1.661065 -53.959413 -25.803239 -58.169989 -19.085565 0.000000 0.000000 0.000000 2.263251 0.270390 -2.742160 -1.294574 1.302043 0.172569 0.000000 0.000000 0.000000 14.334631 15.789647 53.538380 -3.233002 44.898399 2.971798 0.000000 0.000000 0.000000 
4.530155 80.360992 -8.043484 0.000000 0.000000 0.000000 4.989819 -64.014855 5.854871 -43.345453 9.658425 38.188185 57.301141 1.759829 -0.096700 3.043101 4.591199 -16.544339 2.074129 -0.000511 0.000015 0.000000 0.000000 0.000000 4.989819 -64.014855 5.854871 -34.323780 -17.000807 -34.657818 41.848303 8.749189 0.921085 -12.412901 -0.403834 16.962857 0.000269 -0.000177 0.000005 0.000000 0.000000 0.000000 4.989819 -64.014855 5.854871 6.023982 -0.116714 -9.571532 2.022907 1.037168 -3.225559 0.000000 0.000000 0.000000 0.000000 0.000000 0.000000 1.954055 1.061958 -3.259242 -0.427864 1.561225 3.150432 -6.501611 52.691132 -2.930367 0.000000 0.000000 0.000000 1.954055 1.061958 -3.259242 8.323264 13.077826 -7.024601 0.000000 0.000000 0.000000 9.541101 6.100871 -50.685642 -17.718211 -52.472590 -11.271225 0.000000 0.000000 0.000000 1.954055 1.061958 -3.259242 -1.250376 0.958160 0.166087 0.000000 0.000000 0.000000 14.011429 15.962895 54.635913 -3.654936 37.198723 3.123707 0.000000 0.000000 0.000000 
3.942779 79.420151 -7.191509 0.000000 0.000000 0.000000 4.512405 -68.040965 5.772868 -39.708203 7.252624 36.574027 52.825851 -1.058707 -0.079296 -4.136841 2.100563 -15.979304 2.145197 -0.000508 -0.000016 0.000000 0.000000 0.000000 4.512405 -68.040965 5.772868 -34.435778 -13.222535 -33.480156 43.449781 9.177753 0.518738 -12.863633 -0.250811 17.433626 0.000321 -0.000184 -0.000002 0.000000 0.000000 0.000000 4.512405 -68.040965 5.772868 7.426047 0.460397 -9.903432 2.596585 1.518466 -3.801018 0.000000 0.000000 0.000000 0.000000 0.000000 0.000000 2.492143 1.563045 -3.857253 -0.932587 1.253276 2.928706 -9.210484 55.518110 -1.362792 0.000000 0.000000 0.000000 2.492143 1.563045 -3.857253 7.224903 11.907279 -8.568569 0.000000 0.000000 0.000000 -2.264317 11.705494 -47.207556 -12.391288 -47.836336 -6.593968 0.000000 0.000000 0.000000 2.492143 1.563045 -3.857253 -1.065462 1.265480 0.198264 0.000000 0.000000 0.000000 14.656630 14.472744 55.166000 -4.528749 30.845947 3.374015 0.000000 0.000000 0.000000 
3.621253 78.575409 -6.081352 0.000000 0.000000 0.000000 4.753935 -69.963397 6.271941 -38.970898 7.127055 34.307415 48.595638 -6.690884 -0.089591 -7.842165 -0.907814 -11.919990 3.881871 -0.000517 -0.000007 0.000000 0.000000 0.000000 4.753935 -69.963397 6.271941 -34.167629 -10.233018 -33.171695 44.450075 8.953197 0.138063 -13.319172 -0.698138 18.807121 -0.001691 -0.000164 -0.000008 0.000000 0.000000 0.000000 4.753935 -69.963397 6.271941 9.331111 -0.072671 -9.707627 3.397636 1.758899 -4.272319 0.000000 0.000000 0.000000 0.000000 0.000000 0.000000 3.242722 1.798979 -4.382678 -0.898292 1.097332 2.897775 -13.021777 57.653975 -0.236446 0.000000 0.000000 0.000000 3.242722 1.798979 -4.382678 6.161466 9.525335 -8.649472 0.000000 0.000000 0.000000 -13.098021 17.120289 -45.158772 -10.163050 -44.135713 -4.830612 0.000000 0.000000 0.000000 3.242722 1.798979 -4.382678 -0.733836 1.485824 0.243878 0.000000 0.000000 0.000000 13.715255 13.538941 54.727908 -5.815029 26.602204 3.807472 0.000000 0.000000 0.000000 
3.468890 78.022705 -5.064484 0.000000 0.000000 0.000000 5.232290 -71.091327 6.936671 -38.076624 7.506885 32.141723 45.661778 -9.018082 -0.052378 -6.220655 -2.250522 -9.297750 2.746916 0.177485 -4.739844 0.000000 0.000000 0.000000 5.232290 -71.091327 6.936671 -34.467952 -8.880877 -33.563143 44.854129 8.932252 -0.274094 -13.360263 -0.399600 19.928253 -0.001685 -0.000219 -0.000006 0.000000 0.000000 0.000000 5.232290 -71.091327 6.936671 11.101647 0.332215 -9.446275 3.844752 1.739191 -4.462998 0.000000 0.000000 0.000000 0.000000 0.000000 0.000000 3.703560 1.729815 -4.590946 -0.426447 1.447394 3.259720 -15.649043 58.420712 -0.016573 0.000000 0.000000 0.000000 3.703560 1.729815 -4.590946 5.245694 7.261060 -9.175107 0.000000 0.000000 0.000000 -21.030740 21.299936 -43.448346 -4.960353 -43.294250 -1.192641 0.000000 0.000000 0.000000 3.703560 1.729815 -4.590946 -0.098096 1.518205 0.319207 0.000000 0.000000 0.000000 13.426662 12.832216 53.884243 -7.491666 25.107405 4.630546 0.000000 0.000000 0.000000 
3.579125 78.216095 -4.171875 0.000000 0.000000 0.000000 5.843487 -71.369091 7.696093 -34.495898 8.892487 31.591722 40.641101 -6.352662 -0.134524 -6.423926 0.978165 -19.500526 1.250609 0.061543 -1.885649 0.000000 0.000000 0.000000 5.843487 -71.369091 7.696093 -34.435710 -8.711471 -34.113455 43.879201 8.492148 -0.725764 -12.715599 0.260808 21.059345 -0.001695 -0.000178 -0.000007 0.000000 0.000000 0.000000 5.843487 -71.369091 7.696093 12.300296 1.060875 -8.990664 4.382942 1.671303 -4.447871 0.000000 0.000000 0.000000 0.000000 0.000000 0.000000 4.271915 1.639992 -4.554658 -0.458750 1.819445 3.470663 -16.900386 58.325519 -0.207680 0.000000 0.000000 0.000000 4.271915 1.639992 -4.554658 4.391464 4.940768 -9.954860 0.000000 0.000000 0.000000 -26.551693 24.307137 -42.602502 1.447353 -43.761046 3.274859 0.000000 0.000000 0.000000 4.271915 1.639992 -4.554658 0.507073 2.456221 0.659581 0.000000 0.000000 0.000000 13.363990 10.461172 53.096231 -9.478545 25.555791 5.851143 0.000000 0.000000 0.000000 
3.479411 78.435066 -3.230324 0.000000 0.000000 0.000000 6.455011 -70.671243 8.150227 -33.643688 9.120878 30.941573 39.450473 -5.191843 -0.082552 -5.953095 2.564476 -22.785723 0.036937 -0.000345 -0.036667 0.000000 0.000000 0.000000 6.455011 -70.671243 8.150227 -33.932499 -9.455698 -34.474861 42.693440 9.395542 -1.038129 -12.335642 -0.896526 21.605256 -0.001671 -0.000144 -0.000014 0.000000 0.000000 0.000000 6.455011 -70.671243 8.150227 12.969354 1.252844 -8.059061 5.024171 1.730639 -4.266795 0.000000 0.000000 0.000000 0.000000 0.000000 0.000000 4.924047 1.717082 -4.383619 -1.271766 1.870142 3.868889 -16.830445 58.061772 -0.831169 0.000000 0.000000 0.000000 4.924047 1.717082 -4.383619 3.586463 2.693172 -10.846844 0.000000 0.000000 0.000000 -30.961767 26.290530 -41.261306 -0.870276 -44.257799 1.183178 0.000000 0.000000 0.000000 4.924047 1.717082 -4.383619 0.661531 3.883357 3.039103 0.000000 0.000000 0.000000 13.659528 6.120115 51.001258 -11.738470 27.518518 7.595387 0.000000 0.000000 0.000000 
3.240999 78.992508 -2.205986 0.000000 0.000000 0.000000 6.978355 -68.623894 8.285580 -34.748755 9.008809 29.695880 39.411739 -6.325457 0.031185 -6.176117 2.083693 -21.062584 -0.933342 -0.000434 -0.000021 0.000000 0.000000 0.000000 6.978355 -68.623894 8.285580 -32.328033 -11.170213 -35.163235 40.631221 8.993553 -1.282249 -12.126120 -1.622566 22.888946 -0.001698 -0.000164 0.000005 0.000000 0.000000 0.000000 6.978355 -68.623894 8.285580 13.300946 1.109986 -6.850504 5.630068 1.476121 -3.845751 0.000000 0.000000 0.000000 0.000000 0.000000 0.000000 5.575495 1.482955 -3.983745 -2.675893 2.280083 4.381188 -15.235625 57.119807 -2.182673 0.000000 0.000000 0.000000 5.575495 1.482955 -3.983745 2.847441 0.638789 -11.711463 0.000000 0.000000 0.000000 -34.291238 26.631338 -39.147263 -3.736085 -44.066335 -1.454315 0.000000 0.000000 0.000000 5.575495 1.482955 -3.983745 0.852125 5.076410 4.871220 0.000000 0.000000 0.000000 12.798962 0.856344 50.593260 -15.988855 29.963640 10.881380 0.000000 0.000000 0.000000 
2.939555 80.114037 -1.664768 0.000000 0.000000 0.000000 7.480090 -66.070469 8.387815 -35.639343 9.313199 28.418161 37.743998 -7.572500 0.129666 -5.207328 1.213607 -19.546893 -1.560226 -0.000491 -0.000017 0.000000 0.000000 0.000000 7.480090 -66.070469 8.387815 -30.276757 -13.587791 -35.530692 37.839070 7.432614 -1.517627 -11.754995 -1.518521 24.165243 -0.001693 -0.000130 -0.000019 0.000000 0.000000 0.000000 7.480090 -66.070469 8.387815 13.516996 0.797736 -5.756854 6.099984 1.115892 -3.331664 0.000000 0.000000 0.000000 0.000000 0.000000 0.000000 6.083685 1.160796 -3.461941 -4.283053 2.600167 4.447788 -14.120243 55.838408 -2.460325 0.000000 0.000000 0.000000 6.083685 1.160796 -3.461941 2.217092 -1.108163 -12.410327 0.000000 0.000000 0.000000 -37.080540 25.975670 -37.095276 -4.236365 -43.179476 -2.267595 0.000000 0.000000 0.000000 6.083685 1.160796 -3.461941 0.990333 5.993334 6.325151 0.000000 0.000000 0.000000 11.472420 -4.374841 51.934887 -15.078508 33.568208 11.466162 0.000000 0.000000 0.000000 
